Coordinates
version=1
nRows=29
nColumns=24
inDegrees=yes

Units are S.I. units (second, meters, Newtons, ...)
Angles are in degrees.

endheader
time	pelvis_tilt	pelvis_list	pelvis_rotation	pelvis_tx	pelvis_ty	pelvis_tz	hip_flexion_r	hip_adduction_r	hip_rotation_r	knee_angle_r	ankle_angle_r	subtalar_angle_r	mtp_angle_r	hip_flexion_l	hip_adduction_l	hip_rotation_l	knee_angle_l	ankle_angle_l	subtalar_angle_l	mtp_angle_l	lumbar_extension	lumbar_bending	lumbar_rotation
      3.95500000	     -4.32556895	     -6.60831069	     -0.56119538	      0.01729197	     -0.01180232	     -0.11955857	      9.44917973	     14.15729387	     11.27817954	    -16.70183654	     -0.23811296	     -3.31467712	     10.67242553	     30.02184056	     -9.64742730	    -11.06285287	    -64.05359467	     -1.75867051	     -6.58443283	     -7.63174776	      3.99533374	      5.71056233	     -0.28680836
      3.96000000	     -4.21938725	     -6.43497523	     -0.63219971	      0.02336446	     -0.01125535	     -0.11945602	      8.56847217	     13.96857973	     11.61767222	    -16.23469789	     -0.05880410	     -3.44539817	     10.47519626	     30.63848917	     -9.43226481	    -11.22387945	    -63.09423535	     -1.40218748	     -6.25751542	     -7.22360204	      3.81669756	      5.56780663	      0.05986705
      3.96500000	     -4.15015563	     -6.25698609	     -0.70456872	      0.02942170	     -0.01081305	     -0.11939905	      7.76017764	     13.76687099	     11.91407963	    -15.81502337	      0.12898854	     -3.54098316	     10.32900530	     31.26308682	     -9.19966703	    -11.38875595	    -62.05465670	     -0.99637985	     -5.91998263	     -6.93132368	      3.67845721	      5.41991860	      0.37639416
      3.97000000	     -4.06783406	     -6.07645353	     -0.77928794	      0.03545363	     -0.01042270	     -0.11936413	      6.95234001	     13.56185763	     12.22668764	    -15.41938855	      0.32406939	     -3.65798588	     10.17079349	     31.84348274	     -8.95582638	    -11.54330232	    -60.94236233	     -0.58910719	     -5.52702025	     -6.70558268	      3.51915039	      5.27785667	      0.71380393
      3.97500000	     -4.00747540	     -5.89293221	     -0.85747653	      0.04148492	     -0.01010541	     -0.11937300	      6.19607331	     13.34994572	     12.51783725	    -15.07046109	      0.51139748	     -3.77114314	     10.02028077	     32.40540330	     -8.69987644	    -11.70355094	    -59.74168672	     -0.13928353	     -5.09547380	     -6.54776340	      3.38635784	      5.13514535	      1.01035797
      3.98000000	     -3.94147357	     -5.71247086	     -0.92249054	      0.04747337	     -0.00986067	     -0.11940438	      5.45280068	     13.14148913	     12.80934134	    -14.74973332	      0.71116063	     -3.91225058	      9.84525509	     32.93939360	     -8.43491432	    -11.84226880	    -58.48096426	      0.31634587	     -4.60244036	     -6.44501920	      3.23746971	      4.99403535	      1.32254356
      3.98500000	     -3.88843610	     -5.53462441	     -0.98090365	      0.05343375	     -0.00969297	     -0.11947789	      4.74976132	     12.93575384	     13.08029784	    -14.47124599	      0.91896042	     -4.06536000	      9.65424947	     33.45444615	     -8.15951707	    -11.96915123	    -57.14786977	      0.79630287	     -4.04871794	     -6.39057864	      3.09881760	      4.85774292	      1.61142771
      3.99000000	     -3.84794205	     -5.36282518	     -1.03156971	      0.05936076	     -0.00959270	     -0.11959111	      4.08584548	     12.73524775	     13.32794627	    -14.23319050	      1.13053166	     -4.21671163	      9.45429129	     33.95170278	     -7.87980546	    -12.08043172	    -55.74741588	      1.28129984	     -3.41679738	     -6.37954020	      2.96894129	      4.73176123	      1.88101536
      3.99500000	     -3.80717220	     -5.19733332	     -1.07314862	      0.06521256	     -0.00954765	     -0.11974647	      3.45701944	     12.54372107	     13.55415701	    -14.05198947	      1.34056709	     -4.37478036	      9.21918688	     34.41742438	     -7.58934515	    -12.16051959	    -54.28053009	      1.77390166	     -2.70785287	     -6.42829690	      2.82260177	      4.61364406	      2.15463451
      4.00000000	     -3.80391271	     -5.05114014	     -1.10468812	      0.07109522	     -0.00960748	     -0.11992922	      2.87412899	     12.36854464	     13.73071962	    -13.87277009	      1.56768721	     -4.49570832	      9.03722180	     34.89193918	     -7.32188454	    -12.25498945	    -52.76170284	      2.26022763	     -1.93317871	     -6.47495325	      2.72965541	      4.51148738	      2.36289511
      4.00500000	     -3.79868495	     -4.91620905	     -1.12598096	      0.07691499	     -0.00971755	     -0.12014163	      2.31745805	     12.20638160	     13.87638526	    -13.73593017	      1.78815037	     -4.60603671	      8.86072709	     35.33093100	     -7.05404459	    -12.32528279	    -51.18145334	      2.73287812	     -1.08911378	     -6.54656802	      2.61872141	      4.42418537	      2.57505926
      4.01000000	     -3.80597416	     -4.79886491	     -1.13843875	      0.08269703	     -0.00989787	     -0.12037600	      1.79277497	     12.06216747	     13.97622507	    -13.62062882	      2.00826968	     -4.69244143	      8.71211120	     35.75076818	     -6.79848676	    -12.38293199	    -49.54784156	      3.17953967	     -0.19224086	     -6.63063614	      2.51774508	      4.35231996	      2.76344846
      4.01500000	     -3.79218795	     -4.69990824	     -1.15218753	      0.08843634	     -0.01012540	     -0.12061431	      1.27196231	     11.94154599	     14.03783314	    -13.55220856	      2.24771042	     -4.76340335	      8.56499635	     36.11009631	     -6.56103458	    -12.43230186	    -47.86825764	      3.63414794	      0.76026450	     -6.76990485	      2.37880385	      4.29931931	      2.96454526
      4.02000000	     -3.81531226	     -4.63111095	     -1.15030288	      0.09421540	     -0.01042756	     -0.12088134	      0.78407899	     11.84377561	     14.05288889	    -13.46092864	      2.45858519	     -4.76086405	      8.48973336	     36.47561365	     -6.35312535	    -12.48579202	    -46.14615667	      4.03632649	      1.74464851	     -6.88197982	      2.29340599	      4.27302160	      3.09868233
      4.02500000	     -3.82010808	     -4.58309860	     -1.15174506	      0.09996137	     -0.01077738	     -0.12114722	      0.29751160	     11.76855355	     14.02094798	    -13.40191920	      2.68180173	     -4.72129164	      8.45954299	     36.78180315	     -6.16540279	    -12.52785554	    -44.38172063	      4.43705718	      2.75369885	     -7.00997216	      2.17832098	      4.26738266	      3.24621366
      4.03000000	     -3.82875242	     -4.56306833	     -1.14636925	      0.10573683	     -0.01118018	     -0.12139366	     -0.18170673	     11.72131370	     13.94515571	    -13.34616862	      2.89663750	     -4.62600844	      8.48719327	     37.05497044	     -6.00828555	    -12.56682588	    -42.58270949	      4.80937953	      3.78368817	     -7.13032643	      2.07999800	      4.27961570	      3.36453720
      4.03500000	     -3.78151627	     -4.52114543	     -1.15209646	      0.11153247	     -0.01154835	     -0.12171108	     -0.71528409	     11.63274179	     13.81672325	    -13.30102031	      3.18163767	     -4.39302209	      8.57076173	     37.20507992	     -5.82036951	    -12.63261421	    -40.73135720	      5.22638093	      4.77953835	     -7.54149533	      1.91401868	      4.27731324	      3.49293137
      4.04000000	     -3.86236337	     -4.57295447	     -1.12375019	      0.11731399	     -0.01217664	     -0.12197177	     -1.09667859	     11.66407970	     13.67047666	    -13.26971095	      3.34762243	     -4.30178445	      8.67193467	     37.50912794	     -5.72107662	    -12.61504238	    -38.90406873	      5.56875286	      5.84371937	     -7.54969910	      1.89605191	      4.35208097	      3.51343595
      4.04500000	     -3.77251019	     -4.60123262	     -1.14813082	      0.12309934	     -0.01260184	     -0.12225060	     -1.65930950	     11.63803598	     13.47465884	    -13.24263171	      3.60179935	     -3.89359820	      8.97028960	     37.54776095	     -5.62643051	    -12.67159768	    -37.02187962	      5.94590114	      6.92296919	     -7.76835279	      1.67959156	      4.41991348	      3.68438037
      4.05000000	     -3.76304116	     -4.68962731	     -1.14047864	      0.12895264	     -0.01321039	     -0.12253727	     -2.14211834	     11.68358670	     13.24950952	    -13.20493145	      3.78084378	     -3.58377983	      9.21375474	     37.66948670	     -5.57589544	    -12.68187612	    -35.16651039	      6.33593089	      8.02272289	     -7.87513671	      1.57384003	      4.54142224	      3.76747878
      4.05500000	     -3.73218856	     -4.76503573	     -1.14060185	      0.13483086	     -0.01380334	     -0.12281097	     -2.64637559	     11.70668461	     13.02193577	    -13.17301457	      3.97607037	     -3.19193145	      9.51521092	     37.72537380	     -5.51746268	    -12.70363948	    -33.29406101	      6.67323420	      9.12671976	     -8.00831839	      1.44838404	      4.63979650	      3.83929850
      4.06000000	     -3.67023574	     -4.84059278	     -1.14733003	      0.14076135	     -0.01441262	     -0.12312395	     -3.17165012	     11.71967871	     12.76780909	    -13.17363194	      4.19975432	     -2.71918920	      9.89549002	     37.70814913	     -5.45306971	    -12.72195967	    -31.42349132	      7.04844486	     10.21019911	     -8.20021259	      1.30186748	      4.74406824	      3.92626668
      4.06500000	     -3.61416185	     -4.92527820	     -1.15286565	      0.14672186	     -0.01505371	     -0.12344612	     -3.69170655	     11.73712995	     12.51856660	    -13.17517509	      4.40380910	     -2.22361494	     10.28560827	     37.67545054	     -5.39615572	    -12.72565727	    -29.58042927	      7.39996025	     11.31254158	     -8.44143661	      1.16750219	      4.85414747	      3.99714773
      4.07000000	     -3.55447542	     -5.00903065	     -1.14474364	      0.15275039	     -0.01571617	     -0.12377258	     -4.21697658	     11.75150789	     12.28339188	    -13.18841348	      4.58988346	     -1.71619565	     10.66217162	     37.61878463	     -5.33634466	    -12.73237125	    -27.77682891	      7.72399801	     12.44770364	     -8.68852834	      1.04648879	      4.95516821	      4.03991024
      4.07500000	     -3.46185460	     -5.07058262	     -1.19746568	      0.15884506	     -0.01635230	     -0.12410707	     -4.76180366	     11.72540757	     12.04209561	    -13.24190966	      4.81641286	     -1.11166540	     11.12569218	     37.46893735	     -5.26613991	    -12.70956324	    -25.98470306	      8.09338821	     13.47751588	     -9.08711999	      0.89664674	      5.04094581	      4.14227088
      4.08000000	     -3.37619449	     -5.11581669	     -1.22780009	      0.16500312	     -0.01700491	     -0.12451229	     -5.30632348	     11.67085640	     11.85808825	    -13.29440106	      5.04444154	     -0.46502355	     11.61574170	     37.31753080	     -5.16474760	    -12.66598018	    -24.26902548	      8.43758666	     14.50522897	     -9.68832249	      0.77437422	      5.11287803	      4.19654680
      4.08500000	     -3.32108737	     -5.19880013	     -1.21754249	      0.17124783	     -0.01776154	     -0.12485303	     -5.81505924	     11.68366638	     11.65263915	    -13.37053410	      5.16677730	     -0.02141263	     11.88796795	     37.21516557	     -5.10119855	    -12.60996209	    -22.65445282	      8.73608468	     15.61747705	     -9.91044559	      0.70521264	      5.19597257	      4.16493781
      4.09000000	     -3.19523274	     -5.21387212	     -1.30771439	      0.17750227	     -0.01836454	     -0.12525099	     -6.36514326	     11.58435298	     11.51217518	    -13.52238722	      5.38198032	      0.67190947	     12.31512568	     36.96687254	     -5.00566513	    -12.58497667	    -21.05978612	      8.97719461	     16.56306452	    -10.28789026	      0.54688077	      5.24488242	      4.31675819
      4.09500000	     -3.08714165	     -5.22678238	     -1.37197287	      0.18386535	     -0.01902031	     -0.12567834	     -6.89392724	     11.48225419	     11.33548166	    -13.68693643	      5.58209691	      1.36180932	     12.72954180	     36.73607985	     -4.88732917	    -12.46779728	    -19.57339810	      9.20857759	     17.42523963	    -10.72769378	      0.43421819	      5.27628449	      4.38450798
